<svg viewBox="26.1485 -110.2832 788.6603 1133.0071" xmlns="http://www.w3.org/2000/svg">
  <path fill="rgb(129, 129, 0)" opacity="1.000000" stroke="none" d="M 427.565 1017.768 C 421.387 1024.613 419.22 1024.52 413.076 1016.534 C 376.923 969.545 340.226 922.958 304.884 875.366 C 243.58 792.811 187.532 706.765 138.295 616.436 C 109.056 562.795 81.135 508.463 60.188 450.871 C 46.216 412.456 35.306 373.242 29.987 332.653 C 24.499 290.774 24.532 248.886 32.461 207.284 C 44.459 144.338 71.561 88.486 112.315 39.109 C 149.86 -6.381 193.348 -44.607 246.583 -70.826 C 279.458 -87.017 314.019 -98.229 350.247 -104.182 C 384.594 -109.825 419.144 -111.899 453.819 -108.936 C 498.12 -105.151 540.653 -94.014 581.215 -75.744 C 636.427 -50.876 683.831 -15.571 722.997 30.748 C 766.249 81.9 794.503 140.258 807.526 205.934 C 815.358 245.435 816.843 285.192 812.126 325.246 C 806.864 369.931 793.262 412.242 777.09 453.944 C 747.143 531.165 708.505 604.004 666.232 675.025 C 615.943 759.512 560.753 840.74 502.39 919.81 C 478.063 952.768 452.688 984.952 427.565 1017.768 M 348.279 128.918 C 331.299 136.393 316.277 146.952 303.329 160.008 C 264.362 199.3 246.942 246.665 253.766 301.806 C 260.498 356.192 287.661 398.86 335.24 425.591 C 398.383 461.066 461.668 458.025 520.791 415.506 C 563.512 384.783 585.662 341.223 589.29 288.84 C 591.247 260.578 584.864 233.628 572.311 208.145 C 555.009 173.02 529.374 145.96 493.898 129.26 C 445.895 106.661 397.38 107.02 348.279 128.918 Z" style="opacity: 1;"/>
</svg>